<svg id="Layer_3" data-name="Layer 3" xmlns="http://www.w3.org/2000/svg" viewBox="0 0 22.57996 22.57001"><defs><style>.cls-1{fill:#b6b5b5;}</style></defs><path class="cls-1" d="M12,.73A11.285,11.285,0,1,0,23.29,12.01,11.28824,11.28824,0,0,0,12,.73Zm4.83,9.84a4.42236,4.42236,0,0,1-5.07,4.11l.06,1.94c.04,1.31-.19,1.64-1.15,1.67h-.39c-.96.02-1.2-.31-1.17-1.63l.21-9.33C9.34,6.07,9.63,5.63,10.53,5.45a6.7427,6.7427,0,0,1,1.78-.11C15.48,5.59,17.07,7.48,16.83,10.57ZM12.72,8.27A2.275,2.275,0,0,0,11.59,8.5l.08,3.25c1.05-.21,2.16-.77,2.24-1.92C13.99,8.78,13.43,8.32,12.72,8.27Z" transform="translate(-0.71002 -0.72998)"/></svg>