<svg id="Layer_1" data-name="Layer 1" xmlns="http://www.w3.org/2000/svg" viewBox="0 0 68.22473 54.20225"><defs><style>.cls-1{fill:#fff;}</style></defs><path class="cls-1" d="M68.67416,16.85393a1.93476,1.93476,0,0,1,1.93258,1.93258V61.1236a1.93476,1.93476,0,0,1-1.93258,1.93259H12.3146A1.93476,1.93476,0,0,1,10.382,61.1236V18.78651a1.93476,1.93476,0,0,1,1.93258-1.93258H68.67416m0-4H12.3146A5.93258,5.93258,0,0,0,6.382,18.78651V61.1236a5.93259,5.93259,0,0,0,5.93258,5.93259H68.67416a5.93258,5.93258,0,0,0,5.93258-5.93259V18.78651a5.93257,5.93257,0,0,0-5.93258-5.93257Z" transform="translate(-6.38202 -12.85394)"/><rect class="cls-1" x="8.89888" y="32.08988" width="7.68539" height="12"/><rect class="cls-1" x="23.01124" y="15.50562" width="7.68539" height="28.58427"/><rect class="cls-1" x="37.1236" y="23.46067" width="7.68539" height="20.62921"/><rect class="cls-1" x="51.23596" y="10.38202" width="7.68539" height="33.70787"/></svg>