<svg id="Layer_1" data-name="Layer 1" xmlns="http://www.w3.org/2000/svg" viewBox="0 0 49.07868 39.6405"><defs><style>.cls-1{fill:#fff;}</style></defs><path class="cls-1" d="M42.47194,3a3.61083,3.61083,0,0,1,3.60674,3.60676v26.427a3.61082,3.61082,0,0,1-3.60674,3.60675H6.60673A3.61083,3.61083,0,0,1,3,33.03374V6.60674A3.61084,3.61084,0,0,1,6.60673,3H42.47194m0-3H6.60673A6.62617,6.62617,0,0,0,0,6.60674v26.427a6.62618,6.62618,0,0,0,6.60673,6.60675H42.47194a6.62616,6.62616,0,0,0,6.60674-6.60675V6.60674A6.62618,6.62618,0,0,0,42.47194,0Z" transform="translate(0 0.00002)"/><rect class="cls-1" x="6.8764" y="23.26982" width="5.79775" height="9.08975"/><rect class="cls-1" x="36.53932" y="8.35958" width="5.79775" height="24"/><rect class="cls-1" x="26.65168" y="17.39327" width="5.79775" height="14.96629"/><rect class="cls-1" x="16.76404" y="12.00002" width="5.79775" height="20.35955"/></svg>