<svg id="Layer_1" data-name="Layer 1" xmlns="http://www.w3.org/2000/svg" viewBox="0 0 47 47"><defs><style>.cls-1{fill:#fff;}</style></defs><path class="cls-1" d="M47.21,20.71994H40.73l4.58-4.58a2.87293,2.87293,0,0,0,0-4.06l-4.23-4.23a2.87292,2.87292,0,0,0-4.06,0l-4.58,4.58V5.95a2.87442,2.87442,0,0,0-2.86-2.87h-6a2.87647,2.87647,0,0,0-2.87,2.87v6.47l-4.57-4.57a2.87293,2.87293,0,0,0-4.06,0L7.83993,12.08a2.8913,2.8913,0,0,0,0,4.06l4.58,4.58H5.95a2.87443,2.87443,0,0,0-2.87,2.86v6a2.87651,2.87651,0,0,0,2.87,2.87h6.46l-4.57,4.57a2.89129,2.89129,0,0,0,0,4.06L12.08,45.32a2.89128,2.89128,0,0,0,4.06,0l4.57-4.57v6.46a2.87651,2.87651,0,0,0,2.87,2.87h6a2.87446,2.87446,0,0,0,2.86-2.87V40.74l4.58,4.58a2.89127,2.89127,0,0,0,4.06,0l4.23-4.24a2.87292,2.87292,0,0,0,0-4.06l-4.57-4.57h6.47a2.87654,2.87654,0,0,0,2.87-2.87v-6A2.87446,2.87446,0,0,0,47.21,20.71994Zm-13.55,11.73a8.79236,8.79236,0,0,1-1.22,1.22,9.14758,9.14758,0,0,1-5,2.07,9.26994,9.26994,0,0,1-1.72,0,9.15874,9.15874,0,0,1-5.00995-2.08,8.64621,8.64621,0,0,1-1.21-1.21,9.15917,9.15917,0,0,1-2.08-5.01,9.26994,9.26994,0,0,1,0-1.72,9.14766,9.14766,0,0,1,2.07-5,8.79279,8.79279,0,0,1,1.22-1.22,9.15868,9.15868,0,0,1,5-2.08,8.44986,8.44986,0,0,1,.87-.04,8.13231,8.13231,0,0,1,.86.04,9.14751,9.14751,0,0,1,5,2.07,8.93688,8.93688,0,0,1,1.23,1.23,9.14774,9.14774,0,0,1,2.07,5,8.11665,8.11665,0,0,1,.04.86,8.43461,8.43461,0,0,1-.04.87A9.15912,9.15912,0,0,1,33.65994,32.45Z" transform="translate(-3.07998 -3.07998)"/></svg>