<svg id="Layer_3" data-name="Layer 3" xmlns="http://www.w3.org/2000/svg" viewBox="0 0 22.57996 22.57001"><defs><style>.cls-1{fill:#b6b5b5;}</style></defs><path class="cls-1" d="M12,.73A11.285,11.285,0,1,0,23.29,12.01,11.28824,11.28824,0,0,0,12,.73Zm6.01,7.88a8.58841,8.58841,0,0,1-6.94,9.03c-3.47.71-4.62-.67-4.62-.67-.44-.34-.03-.85.94-.75.98.11,1.59-1.18,1.59-1.18a2.5119,2.5119,0,0,1-2.5-1.51c1.01,0,1.12-.51,1.12-.51a3.674,3.674,0,0,1-2.63-2.83C6.21,10.39,6.08,9.85,6.08,9.85c-1.52-1.61.37-3.03.37-3.03A7.35926,7.35926,0,0,0,12,9.62V7.93c-.11-1.24,1.63-2.29,3.38-2.26,1.75.04,3.17,2.26,3.31,2.63C18.82,8.67,18.01,8.61,18.01,8.61Z" transform="translate(-0.71002 -0.72998)"/></svg>